<?xml version="1.0" encoding="UTF-8"?>
<svg xmlns="http://www.w3.org/2000/svg" xmlns:xlink="http://www.w3.org/1999/xlink"
height="128" width="512">
<!-- Font Awesome - https://fontawesome.com/license/free -->
<symbol id="fa-google-scholar" viewBox="0 0 512 512">
<path d="M390.9 298.5c0 0 0 .1 .1 .1c9.2 19.4 14.4 41.1 14.4 64C405.3 445.1 338.5 512 256 512s-149.3-66.9-149.3-149.3c0-22.9 5.2-44.6 14.4-64h0c1.7-3.6 3.6-7.2 5.6-10.7c4.4-7.6 9.4-14.7 15-21.3c27.4-32.6 68.5-53.3 114.4-53.3c33.6 0 64.6 11.1 89.6 29.9c9.1 6.9 17.4 14.7 24.8 23.5c5.6 6.6 10.6 13.8 15 21.3c2 3.4 3.8 7 5.5 10.5zm26.4-18.8c-30.1-58.4-91-98.4-161.3-98.4s-131.2 40-161.3 98.4L0 202.7 256 0 512 202.7l-94.7 77.1z"/>
</symbol>
<symbol id="fa-orcid" viewBox="0 0 512 512">
<path fill="#A6CE39" d="M294.8 188.2h-45.9V342h47.5c67.6 0 83.1-51.3 83.1-76.9 0-41.6-26.5-76.9-84.7-76.9zM256 8C119 8 8 119 8 256s111 248 248 248 248-111 248-248S393 8 256 8zm-80.8 360.8h-29.8v-207.5h29.8zm-14.9-231.1a19.6 19.6 0 1 1 19.6-19.6 19.6 19.6 0 0 1 -19.6 19.6zM300 369h-81V161.3h80.6c76.7 0 110.4 54.8 110.4 103.9C410 318.4 368.4 369 300 369z"/>
</symbol>
<symbol id="dblp" viewBox="0 0 32 32" >
<path fill="#FBBA02" d="M28.401 19.438l-3.266-12.208c0 0-0.203-0.792-0.964-0.443l-7.464 3.469 1.146 4.266 1.453 5.438 0.010 0.083c0.068 0.625-0.547 1.052-0.547 1.052l-2.505 1.161 0.667 2.516 0.052 0.135c0.094 0.229 0.375 0.802 1.083 1.214l9.266 5.693c0 0 0.906 0.547 0.693-0.224l-2.641-9.87 2.479-1.146c0 0 0.75-0.344 0.536-1.135z"/>
<path fill="#094F9E" d="M18.349 19.563l-0.016-0.083-1.505-5.625-1.776-6.589v-0.052c0 0-0.214-0.786-1.12-1.333l-9.266-5.693c0 0-0.906-0.547-0.693 0.224l2.651 9.896-2.49 1.161c0 0-0.75 0.344-0.536 1.13l3.266 12.214c0 0 0.214 0.786 0.964 0.443l9.958-4.641c0 0 0.693-0.323 0.563-1.052z"/>
</symbol>
<symbol id="arxiv" viewBox="0 0 17.732 24.269">
<path d="M573.549,280.916l2.266,2.738,6.674-7.84c.353-.47.52-.717.353-1.117a1.218,1.218,0,0,0-1.061-.748h0a.953.953,0,0,0-.712.262Z" transform="translate(-566.984 -271.548)" fill="#bdb9b4"/>
<path d="M579.525,282.225l-10.606-10.174a1.413,1.413,0,0,0-.834-.5,1.09,1.09,0,0,0-1.027.66c-.167.4-.047.681.319,1.206l8.44,10.242h0l-6.282,7.716a1.336,1.336,0,0,0-.323,1.3,1.114,1.114,0,0,0,1.04.69A.992.992,0,0,0,571,293l8.519-7.92A1.924,1.924,0,0,0,579.525,282.225Z" transform="translate(-566.984 -271.548)" fill="#b31b1b"/>
<path d="M584.32,293.912l-8.525-10.275,0,0L573.53,280.9l-1.389,1.254a2.063,2.063,0,0,0,0,2.965l10.812,10.419a.925.925,0,0,0,.742.282,1.039,1.039,0,0,0,.953-.667A1.261,1.261,0,0,0,584.32,293.912Z" transform="translate(-566.984 -271.548)" fill="#bdb9b4"/>
</symbol>
<use xlink:href="#fa-google-scholar" x="0" y="0" width="128" height="128"/>
<use xlink:href="#fa-orcid" x="128" y="0" width="128" height="128"/>
<use xlink:href="#dblp" x="256" y="0" width="128" height="128"/>
<use xlink:href="#arxiv" x="384" y="0" width="128" height="128"/>
</svg>
