<?xml version="1.0" encoding="UTF-8"?>
<svg xmlns="http://www.w3.org/2000/svg" xmlns:xlink="http://www.w3.org/1999/xlink"
height="128" width="936">
<!-- Font Awesome - https://fontawesome.com/license/free -->
<symbol id="fa-github" viewBox="0 0 496 512">
<path d="M165.9 397.4c0 2-2.3 3.6-5.2 3.6-3.3.3-5.6-1.3-5.6-3.6 0-2 2.3-3.6 5.2-3.6 3-.3 5.6 1.3 5.6 3.6zm-31.1-4.5c-.7 2 1.3 4.3 4.3 4.9 2.6 1 5.6 0 6.2-2s-1.3-4.3-4.3-5.2c-2.6-.7-5.5.3-6.2 2.3zm44.2-1.7c-2.9.7-4.9 2.6-4.6 4.9.3 2 2.9 3.3 5.9 2.6 2.9-.7 4.9-2.6 4.6-4.6-.3-1.9-3-3.2-5.9-2.9zM244.8 8C106.1 8 0 113.3 0 252c0 110.9 69.8 205.8 169.5 239.2 12.8 2.3 17.3-5.6 17.3-12.1 0-6.2-.3-40.4-.3-61.4 0 0-70 15-84.7-29.8 0 0-11.4-29.1-27.8-36.6 0 0-22.9-15.7 1.6-15.4 0 0 24.9 2 38.6 25.8 21.9 38.6 58.6 27.5 72.9 20.9 2.3-16 8.8-27.1 16-33.7-55.9-6.2-112.3-14.3-112.3-110.5 0-27.5 7.6-41.3 23.6-58.9-2.6-6.5-11.1-33.3 2.6-67.9 20.9-6.5 69 27 69 27 20-5.6 41.5-8.5 62.8-8.5s42.8 2.9 62.8 8.5c0 0 48.1-33.6 69-27 13.7 34.7 5.2 61.4 2.6 67.9 16 17.7 25.8 31.5 25.8 58.9 0 96.5-58.9 104.2-114.8 110.5 9.2 7.9 17 22.9 17 46.4 0 33.7-.3 75.4-.3 83.6 0 6.5 4.6 14.4 17.3 12.1C428.2 457.8 496 362.9 496 252 496 113.3 383.5 8 244.8 8zM97.2 352.9c-1.3 1-1 3.3.7 5.2 1.6 1.6 3.9 2.3 5.2 1 1.3-1 1-3.3-.7-5.2-1.6-1.6-3.9-2.3-5.2-1zm-10.8-8.1c-.7 1.3.3 2.9 2.3 3.9 1.6 1 3.6.7 4.3-.7.7-1.3-.3-2.9-2.3-3.9-2-.6-3.6-.3-4.3.7zm32.4 35.6c-1.6 1.3-1 4.3 1.3 6.2 2.3 2.3 5.2 2.6 6.5 1 1.3-1.3.7-4.3-1.3-6.2-2.2-2.3-5.2-2.6-6.5-1zm-11.4-14.7c-1.6 1-1.6 3.6 0 5.9 1.6 2.3 4.3 3.3 5.6 2.3 1.6-1.3 1.6-3.9 0-6.2-1.4-2.3-4-3.3-5.6-2z"/>
</symbol>
<symbol id="fa-linkedin" viewBox="0 0 448 512">
<path fill="#0066bf" d="M416 32H31.9C14.3 32 0 46.5 0 64.3v383.4C0 465.5 14.3 480 31.9 480H416c17.6 0 32-14.5 32-32.3V64.3c0-17.8-14.4-32.3-32-32.3z"/>
<path fill="#f0f0f0" d="M135.4 416H69V202.2h66.5V416zm-33.2-243c-21.3 0-38.5-17.3-38.5-38.5S80.9 96 102.2 96c21.2 0 38.5 17.3 38.5 38.5 0 21.3-17.2 38.5-38.5 38.5zm282.1 243h-66.4V312c0-24.8-.5-56.7-34.5-56.7-34.6 0-39.9 27-39.9 54.9V416h-66.4V202.2h63.7v29.2h.9c8.9-16.8 30.6-34.5 62.9-34.5 67.2 0 79.7 44.3 79.7 101.9V416z"/>
</symbol>
<symbol id="fa-youtube" viewBox="0 0 576 512">
<path fill="#eb3223" d="M549.655 124.083c-6.281-23.65-24.787-42.276-48.284-48.597C458.781 64 288 64 288 64S117.22 64 74.629 75.486c-23.497 6.322-42.003 24.947-48.284 48.597-11.412 42.867-11.412 132.305-11.412 132.305s0 89.438 11.412 132.305c6.281 23.65 24.787 41.5 48.284 47.821C117.22 448 288 448 288 448s170.78 0 213.371-11.486c23.497-6.321 42.003-24.171 48.284-47.821 11.412-42.867 11.412-132.305 11.412-132.305s0-89.438-11.412-132.305z"/>
<path fill="#f0f0f0" d="M232 336.815V175.185l142.739 81.205-142.739 81.201z"/>
</symbol>
<symbol id="fa-envelope" viewBox="0 0 512 512">
<path d="M464 64H48C21.49 64 0 85.49 0 112v288c0 26.51 21.49 48 48 48h416c26.51 0 48-21.49 48-48V112c0-26.51-21.49-48-48-48zm0 48v40.805c-22.422 18.259-58.168 46.651-134.587 106.49-16.841 13.247-50.201 45.072-73.413 44.701-23.208.375-56.579-31.459-73.413-44.701C106.18 199.465 70.425 171.067 48 152.805V112h416zM48 400V214.398c22.914 18.251 55.409 43.862 104.938 82.646 21.857 17.205 60.134 55.186 103.062 54.955 42.717.231 80.509-37.199 103.053-54.947 49.528-38.783 82.032-64.401 104.947-82.653V400H48z"/>
</symbol>
<symbol id="codeforces" viewBox="0 0 160 120">
<rect stroke="black" stroke-opacity="0.5" fill="#F5C339" x="4" y="35" width="38" height="80" rx="10" ry="10"/>
<rect stroke="black" stroke-opacity="0.5" fill="#1581C5" x="61" y="5" width="38" height="110" rx="10" ry="10"/>
<rect stroke="black" stroke-opacity="0.5" fill="#B11E26" x="116" y="51" width="38" height="64" rx="10" ry="10"/>
</symbol>
<symbol id="fa-twitter" viewBox="0 0 512 512">
<path fill="#1d9bf0" d="M459.37 151.716c.325 4.548.325 9.097.325 13.645 0 138.72-105.583 298.558-298.558 298.558-59.452 0-114.68-17.219-161.137-47.106 8.447.974 16.568 1.299 25.34 1.299 49.055 0 94.213-16.568 130.274-44.832-46.132-.975-84.792-31.188-98.112-72.772 6.498.974 12.995 1.624 19.818 1.624 9.421 0 18.843-1.3 27.614-3.573-48.081-9.747-84.143-51.98-84.143-102.985v-1.299c13.969 7.797 30.214 12.67 47.431 13.319-28.264-18.843-46.781-51.005-46.781-87.391 0-19.492 5.197-37.36 14.294-52.954 51.655 63.675 129.3 105.258 216.365 109.807-1.624-7.797-2.599-15.918-2.599-24.04 0-57.828 46.782-104.934 104.934-104.934 30.213 0 57.502 12.67 76.67 33.137 23.715-4.548 46.456-13.32 66.599-25.34-7.798 24.366-24.366 44.833-46.132 57.827 21.117-2.273 41.584-8.122 60.426-16.243-14.292 20.791-32.161 39.308-52.628 54.253z"/>
</symbol>
<symbol id="mastodon" viewBox="0 0 74 79">
<path fill="#6364FF" d="M73.7014 17.4323C72.5616 9.05152 65.1774 2.4469 56.424 1.1671C54.9472 0.950843 49.3518 0.163818 36.3901 0.163818H36.2933C23.3281 0.163818 20.5465 0.950843 19.0697 1.1671C10.56 2.41145 2.78877 8.34604 0.903306 16.826C-0.00357854 21.0022 -0.100361 25.6322 0.068112 29.8793C0.308275 35.9699 0.354874 42.0498 0.91406 48.1156C1.30064 52.1448 1.97502 56.1419 2.93215 60.0769C4.72441 67.3445 11.9795 73.3925 19.0876 75.86C26.6979 78.4332 34.8821 78.8603 42.724 77.0937C43.5866 76.8952 44.4398 76.6647 45.2833 76.4024C47.1867 75.8033 49.4199 75.1332 51.0616 73.9562C51.0841 73.9397 51.1026 73.9184 51.1156 73.8938C51.1286 73.8693 51.1359 73.8421 51.1368 73.8144V67.9366C51.1364 67.9107 51.1302 67.8852 51.1186 67.862C51.1069 67.8388 51.0902 67.8184 51.0695 67.8025C51.0489 67.7865 51.0249 67.7753 50.9994 67.7696C50.9738 67.764 50.9473 67.7641 50.9218 67.7699C45.8976 68.9569 40.7491 69.5519 35.5836 69.5425C26.694 69.5425 24.3031 65.3699 23.6184 63.6327C23.0681 62.1314 22.7186 60.5654 22.5789 58.9744C22.5775 58.9477 22.5825 58.921 22.5934 58.8965C22.6043 58.8721 22.621 58.8505 22.6419 58.8336C22.6629 58.8167 22.6876 58.8049 22.714 58.7992C22.7404 58.7934 22.7678 58.794 22.794 58.8007C27.7345 59.9796 32.799 60.5746 37.8813 60.5733C39.1036 60.5733 40.3223 60.5733 41.5447 60.5414C46.6562 60.3996 52.0437 60.1408 57.0728 59.1694C57.1983 59.1446 57.3237 59.1233 57.4313 59.0914C65.3638 57.5847 72.9128 52.8555 73.6799 40.8799C73.7086 40.4084 73.7803 35.9415 73.7803 35.4523C73.7839 33.7896 74.3216 23.6576 73.7014 17.4323ZM61.4925 47.3144H53.1514V27.107C53.1514 22.8528 51.3591 20.6832 47.7136 20.6832C43.7061 20.6832 41.6988 23.2499 41.6988 28.3194V39.3803H33.4078V28.3194C33.4078 23.2499 31.3969 20.6832 27.3894 20.6832C23.7654 20.6832 21.9552 22.8528 21.9516 27.107V47.3144H13.6176V26.4937C13.6176 22.2395 14.7157 18.8598 16.9118 16.3545C19.1772 13.8552 22.1488 12.5719 25.8373 12.5719C30.1064 12.5719 33.3325 14.1955 35.4832 17.4394L37.5587 20.8853L39.6377 17.4394C41.7884 14.1955 45.0145 12.5719 49.2765 12.5719C52.9614 12.5719 55.9329 13.8552 58.2055 16.3545C60.4017 18.8574 61.4997 22.2371 61.4997 26.4937L61.4925 47.3144Z" />
</symbol>
<symbol id="orcid" viewBox="0 0 72 72">
<circle cx="36" cy="36" r="36" fill="#A6CE39"/>
<g transform="translate(18.868966, 12.910345)" fill="#FFFFFF">
    <polygon points="5.03734929 39.1250878 0.695429861 39.1250878 0.695429861 9.14431787 5.03734929 9.14431787 5.03734929 22.6930505 5.03734929 39.1250878"/>
    <path d="M11.409257,9.14431787 L23.1380784,9.14431787 C34.303014,9.14431787 39.2088191,17.0664074 39.2088191,24.1486995 C39.2088191,31.846843 33.1470485,39.1530811 23.1944669,39.1530811 L11.409257,39.1530811 L11.409257,9.14431787 Z M15.7511765,35.2620194 L22.6587756,35.2620194 C32.49858,35.2620194 34.7541226,27.8438084 34.7541226,24.1486995 C34.7541226,18.1301509 30.8915059,13.0353795 22.4332213,13.0353795 L15.7511765,13.0353795 L15.7511765,35.2620194 Z"/>
    <path d="M5.71401206,2.90182329 C5.71401206,4.441452 4.44526937,5.72914146 2.86638958,5.72914146 C1.28750978,5.72914146 0.0187670918,4.441452 0.0187670918,2.90182329 C0.0187670918,1.33420133 1.28750978,0.0745051096 2.86638958,0.0745051096 C4.44526937,0.0745051096 5.71401206,1.36219458 5.71401206,2.90182329 Z"/>
</g>
</symbol>
<use xlink:href="#fa-github" x="0" y="0" width="124" height="128"/>
<use xlink:href="#fa-linkedin" x="124" y="0" width="112" height="128"/>
<use xlink:href="#fa-youtube" x="236" y="0" width="144" height="128"/>
<use xlink:href="#codeforces" x="380" y="0" width="172" height="128"/>
<use xlink:href="#fa-envelope" x="552" y="0" width="128" height="128"/>
<use xlink:href="#fa-twitter" x="680" y="0" width="128" height="128"/>
<use xlink:href="#mastodon" x="808" y="0" width="128" height="128"/>
</svg>
